#!OML:ASF H:\LiuWeirdWalks\Patient Classification 1\Patient 1\Session 1\male.ASF
:FULLY-SPECIFIED
:DEGREES
472
root 1.26588 17.8762 -17.6419 2.4987 4.23642 -9.36099
lowerback 2.33637 3.23 6.43219
upperback -1.69331 4.65681 3.72894
thorax -2.86622 2.23206 0.0454362
lowerneck -17.7375 -1.10224 4.2598
upperneck 22.863 -1.94356 -3.20832
head 10.1452 -0.897949 -2.11489
rclavicle -3.74336e-014 -3.04141e-014
rhumerus -35.8756 -10.9962 -76.1927
rradius 40.5384
rwrist -12.2909
rhand -18.208 -3.30615
rfingers 7.12502
rthumb 8.06955 -33.1321
lclavicle -3.74336e-014 -3.04141e-014
lhumerus -50.434 0.188691 82.7298
lradius 35.3586
lwrist 12.8937
lhand -12.9105 1.31596
lfingers 7.12502
lthumb 13.1794 30.8794
rfemur 13.0507 0.824936 34.6568
rtibia 8.82095
rfoot -8.25995 -13.656
rtoes -10.02
lfemur -30.8193 -1.97662 -10.7064
ltibia 26.1413
lfoot -13.434 10.8071
ltoes -17.9424
473
root 1.28127 17.8783 -17.5759 2.50216 4.37453 -9.33723
lowerback 2.3713 3.16341 6.35276
upperback -1.70402 4.5696 3.73024
thorax -2.90677 2.18919 0.0908663
lowerneck -17.8514 -1.1009 4.28753
upperneck 22.9814 -1.94915 -3.22877
head 10.2086 -0.899363 -2.13172
rclavicle -9.85227e-015 -6.0033e-014
rhumerus -35.8201 -11.1606 -76.1366
rradius 40.3394
rwrist -12.1942
rhand -18.2512 -3.32865
rfingers 7.12502
rthumb 8.02792 -33.1562
lclavicle -9.85227e-015 -6.0033e-014
lhumerus -50.3324 0.186947 82.7309
lradius 35.274
lwrist 12.8356
lhand -12.8759 1.31618
lfingers 7.12502
lthumb 13.2129 30.8775
rfemur 13.0301 0.671566 34.6117
rtibia 9.24649
rfoot -8.23852 -13.6494
rtoes -10.2846
lfemur -30.7659 -1.84992 -10.8276
ltibia 26.3221
lfoot -13.2388 10.3455
ltoes -18.1747
474
root 1.29702 17.8809 -17.51 2.49872 4.51428 -9.32982
lowerback 2.40156 3.10039 6.29889
upperback -1.70438 4.48676 3.73196
thorax -2.9317 2.14851 0.123382
lowerneck -17.8948 -1.12349 4.26386
upperneck 23.0219 -1.98283 -3.2018
head 10.2306 -0.91332 -2.12425
rclavicle -1.78068e-014 1.78906e-014
rhumerus -35.7723 -11.3372 -76.0777
rradius 40.1489
rwrist -12.1095
rhand -18.281 -3.34987
rfingers 7.12502
rthumb 7.99914 -33.1785
lclavicle -1.78068e-014 1.78906e-014
lhumerus -50.2161 0.14737 82.7508
lradius 35.2034
lwrist 12.7887
lhand -12.8336 1.30775
lfingers 7.12502
lthumb 13.2536 30.8664
rfemur 13.0174 0.51615 34.5807
rtibia 9.65767
rfoot -8.1807 -13.6259
rtoes -10.5322
lfemur -30.7002 -1.74215 -10.9275
ltibia 26.4978
lfoot -13.0298 9.9506
ltoes -18.4384
475
root 1.3135 17.8846 -17.4436 2.49539 4.64997 -9.32049
lowerback 2.41072 3.03652 6.24979
upperback -1.68529 4.39959 3.73689
thorax -2.92445 2.1067 0.158746
lowerneck -17.8778 -1.11643 4.31678
upperneck 22.9314 -1.98093 -3.23103
head 10.1938 -0.912644 -2.14108
rclavicle -8.22472e-015 -1.47101e-014
rhumerus -35.7068 -11.4913 -76.0251
rradius 39.9722
rwrist -12.069
rhand -18.3033 -3.38237
rfingers 7.12502
rthumb 7.97759 -33.2118
lclavicle -8.22472e-015 -1.47101e-014
lhumerus -50.0742 0.0954442 82.7943
lradius 35.1461
lwrist 12.7669
lhand -12.7793 1.29168
lfingers 7.12502
lthumb 13.3059 30.8469
rfemur 13.0115 0.365424 34.541
rtibia 10.0534
rfoot -8.09585 -13.5858
rtoes -10.7383
lfemur -30.6194 -1.63825 -11.0346
ltibia 26.6638
lfoot -12.8171 9.64084
ltoes -18.6567
476
root 1.33101 17.8893 -17.3761 2.49556 4.75675 -9.29336
lowerback 2.4106 2.98274 6.18961
upperback -1.66306 4.3241 3.73469
thorax -2.90826 2.0711 0.19306
lowerneck -17.8537 -1.11444 4.36565
upperneck 22.8196 -1.98355 -3.26506
head 10.1479 -0.915289 -2.15898
rclavicle 2.58544e-014 4.73108e-014
rhumerus -35.6568 -11.6299 -75.9761
rradius 39.8096
rwrist -12.0626
rhand -18.3109 -3.4092
rfingers 7.12502
rthumb 7.97028 -33.2389
lclavicle 2.58544e-014 4.73108e-014
lhumerus -49.9293 0.0189166 82.8535
lradius 35.1009
lwrist 12.7566
lhand -12.7256 1.27069
lfingers 7.12502
lthumb 13.3576 30.8225
rfemur 13.0106 0.381595 34.5045
rtibia 10.4425
rfoot -7.95548 -13.6692
rtoes -10.9298
lfemur -30.51 -1.54304 -11.161
ltibia 26.8157
lfoot -12.6201 9.45174
ltoes -18.8226
